# xmcd
#
# Track frame offsets: 
#        150
#        14057
#        29087
#        49440
#        63745
#        80732
#        95160
#
# Disc length: 1492 seconds
#
# Revision: 2
# Processed by: cddbd v1.5.2PL0 Copyright (c) Steve Scherf et al.
# Submitted via: ExactAudioCopy v1.1
#
DISCID=6c05d207
DTITLE=Da Brat - Funkdafied (Da EP)
DYEAR=1994
DGENRE=Hip-Hop
TTITLE0=Funkdafied
TTITLE1=Fa All Y'all
TTITLE2=Mind Blowin'
TTITLE3=Give It 2 You
TTITLE4=Funkdafied (DJ Club Mix)
TTITLE5=Fa All Y'all (Remix)
TTITLE6=Da B Side
EXTD=
EXTT0=
EXTT1=
EXTT2=
EXTT3=
EXTT4=
EXTT5=
EXTT6=
PLAYORDER=
